<svg id="Layer_1" data-name="Layer 1" xmlns="http://www.w3.org/2000/svg" width="65" height="19.01" viewBox="0 0 65 19.01">
  <title>logo</title>
  <g>
    <line y1="4.51" x2="21" y2="4.51" style="fill: none;stroke: #000;stroke-miterlimit: 10;stroke-width: 2px"/>
    <line x1="3.25" y1="8.51" x2="21" y2="8.51" style="fill: none;stroke: #000;stroke-miterlimit: 10;stroke-width: 2px"/>
    <line x1="7.75" y1="12.51" x2="21" y2="12.51" style="fill: none;stroke: #000;stroke-miterlimit: 10;stroke-width: 2px"/>
    <line x1="44" y1="4.51" x2="65" y2="4.51" style="fill: none;stroke: #000;stroke-miterlimit: 10;stroke-width: 2px"/>
    <line x1="44" y1="8.51" x2="61.75" y2="8.51" style="fill: none;stroke: #000;stroke-miterlimit: 10;stroke-width: 2px"/>
    <line x1="44" y1="12.51" x2="57.25" y2="12.51" style="fill: none;stroke: #000;stroke-miterlimit: 10;stroke-width: 2px"/>
    <path d="M376.42,378.12a4.62,4.62,0,0,0,1.81-.34,3.78,3.78,0,0,0,1.35-.95,4.15,4.15,0,0,0,.84-1.48,6.09,6.09,0,0,0,.29-2V362.14h3.5V373.4a8.7,8.7,0,0,1-.54,3.1,7,7,0,0,1-1.55,2.46,7.08,7.08,0,0,1-2.46,1.61,9.42,9.42,0,0,1-6.5,0,6.89,6.89,0,0,1-4-4.07,8.69,8.69,0,0,1-.54-3.1V362.14h3.5v11.24a6.09,6.09,0,0,0,.29,2,4.27,4.27,0,0,0,.84,1.49,3.68,3.68,0,0,0,1.35,1A4.62,4.62,0,0,0,376.42,378.12Z" transform="translate(-343.96 -362.14)"/>
  </g>
</svg>
