<svg id="Layer_1" data-name="Layer 1" xmlns="http://www.w3.org/2000/svg" width="362.44" height="545.09" viewBox="0 0 362.44 545.09">
  <title>marker</title>
  <path d="M541.09,267.92c0.77,31-6.42,59-20.13,85.18-8.14,15.56-17.42,30.52-26.23,45.72Q480.9,422.68,467,446.49c-14.23,24.4-28.56,48.74-42.71,73.19C408.8,546.4,393.51,573.22,378.11,600c-5.9,10.25-12,20.36-17.79,30.68-1.8,3.22-2.6,2.55-4.06,0Q339.45,600.82,322.53,571c-13.71-24.14-27.53-48.22-41.19-72.38-11-19.45-21.74-39-32.75-58.49-13.36-23.58-26.95-47-40.31-70.61-11.45-20.21-21.4-41.08-26-64.08a179.45,179.45,0,0,1-3-49.9,182.37,182.37,0,0,1,16.65-63.49,178.92,178.92,0,0,1,42.16-57.36c25.29-22.75,54.66-37.58,88.37-43.87a183.72,183.72,0,0,1,48-2.58,176.54,176.54,0,0,1,83.58,28q44.4,28.72,66.81,76.31a171.86,171.86,0,0,1,15.5,56.14C541,255.59,540.65,262.34,541.09,267.92Z" transform="translate(-178.71 -87.73)" style="fill: #000"/>
  <path d="M360.28,205a58.91,58.91,0,1,1-.4,117.82c-32.51-.07-58.55-26.16-58.73-59.46C301,231.24,327.79,205,360.28,205Z" transform="translate(-178.71 -87.73)" style="fill: #fff"/>
</svg>
